<?xml version="1.0" encoding="utf-8"?>
<svg width="430" height="336" viewBox="0 0 430 336" fill="none" xmlns="http://www.w3.org/2000/svg">
  <g>
    <path d="M141.386 0.461596C138.687 1.59552 131.177 6.02943 129.623 7.40697C127.226 9.53124 128.45 13.0843 131.579 13.0843C132.701 13.0843 133.01 13.3926 133.01 14.5136C133.01 16.4254 134.484 17.7918 136.547 17.7918C137.995 17.7918 138.707 17.1062 141.59 12.9371C143.436 10.2668 145.488 7.05155 146.15 5.79229C147.227 3.74275 147.264 3.34672 146.513 2.02861C145.376 0.0332108 143.657 -0.492267 141.386 0.461596C141.386 0.461596 141.386 0.461596 141.386 0.461596ZM106.797 16.5502C105.501 17.1474 103.877 18.2672 103.187 19.0381C102.012 20.3509 94.8179 30.5274 80.6614 50.9004C80.6614 50.9004 74.6244 59.5888 74.6244 59.5888C74.6244 59.5888 63.3206 59.5029 63.3206 59.5029C54.6629 59.437 50.9131 59.6511 47.304 60.4167C38.403 62.3044 31.5984 64.2416 29.657 65.4408C27.6218 66.6971 23.4479 73.7249 23.4479 75.8951C23.4479 78.1229 26.624 79.7605 28.559 78.5313C28.9407 78.2888 30.14 76.5135 31.2244 74.5864C31.2244 74.5864 33.1965 71.0828 33.1965 71.0828C33.1965 71.0828 37.8941 69.73 37.8941 69.73C48.7407 66.6053 53.5261 65.9781 65.3593 66.1269C75.7041 66.2576 76.5817 66.1852 78.0861 65.0783C80.1207 63.5813 82.2619 60.6909 96.6839 39.9719C106.15 26.3742 108.72 23.0601 110.232 22.5023C113.489 21.3007 113.862 20.9535 114.059 18.9351C114.399 15.4763 111.32 14.4653 106.797 16.5502C106.797 16.5502 106.797 16.5502 106.797 16.5502ZM133.299 33.8998C132.539 35.0578 132.493 35.7875 133.028 38.166C134.212 43.4202 132.465 53.1218 129.201 59.4199C128.067 61.6065 125.671 65.9116 123.875 68.9862C120.188 75.2972 119.209 78.2171 119.634 81.6318C122.016 100.798 122.248 101.562 125.603 101.232C128.614 100.936 128.816 99.6499 127.498 89.1727C126.855 84.0573 126.497 79.2104 126.704 78.4012C126.91 77.5921 128.558 74.4146 130.366 71.34C138.485 57.5322 140.407 51.3924 139.975 40.6468C139.792 36.1111 139.518 34.6877 138.642 33.7203C137.119 32.0391 134.46 32.1286 133.299 33.8998C133.299 33.8998 133.299 33.8998 133.299 33.8998ZM13.9502 93.4942C12.9918 94.6481 8.13988 103.319 6.02934 107.649C3.85107 112.119 3.5324 115.281 2.87208 138.982C2.32251 158.712 2.35373 160.519 3.25908 161.519C4.68397 163.091 7.63448 162.678 8.50921 160.783C8.93921 159.852 9.44755 151.12 9.89463 136.971C10.6533 112.96 10.6451 113.016 14.1687 107.008C19.0201 98.733 20.2659 94.8764 18.6177 93.2299C17.5963 92.2096 14.8903 92.3626 13.9502 93.4942C13.9502 93.4942 13.9502 93.4942 13.9502 93.4942ZM125.962 118.376C124.543 121.026 126.041 124.207 129.723 126.363C133.242 128.423 135.238 128.932 142.182 129.541C148.534 130.098 153.173 131.648 155.322 133.934C155.322 133.934 156.545 135.234 156.545 135.234C156.545 135.234 150.922 145.508 150.922 145.508C143.214 159.59 144.056 158.524 140.802 158.313C137.805 158.119 137.74 158.026 135.979 151.482C135.074 148.111 133.539 146.66 130.88 146.66C129.021 146.66 128.154 147.239 124.051 151.221C117.832 157.255 116.407 159.736 116.06 165.129C115.761 169.788 116.374 170.934 119.167 170.934C121.362 170.934 122.31 169.817 122.705 166.766C122.9 165.256 123.176 163.456 123.316 162.767C123.569 161.527 128.618 155.487 129.401 155.487C129.624 155.487 130.159 156.676 130.588 158.13C132.772 165.516 143.745 168.044 148.777 162.319C150.492 160.369 161.066 141.672 162.801 137.523C164.034 134.576 163.445 132.481 160.579 129.619C156.615 125.659 151.802 123.758 143.211 122.76C135.338 121.844 133.011 121.039 131.475 118.697C130.252 116.834 126.893 116.638 125.962 118.376C125.962 118.376 125.962 118.376 125.962 118.376ZM227.845 162.165C224.835 163.246 211.54 172.306 210.389 174.061C209.458 175.481 209.468 175.646 210.588 177.146C211.239 178.017 212.193 178.813 212.709 178.915C213.225 179.016 217.15 176.796 221.431 173.98C225.712 171.164 229.636 168.752 230.15 168.619C231.175 168.354 241.794 172.128 242.772 173.106C243.19 173.523 243.07 174.696 242.387 176.862C241.184 180.673 241.145 185.653 242.277 190.794C243.372 195.767 243.372 199.462 242.277 202.562C240.565 207.408 241.319 209.624 244.679 209.624C247.038 209.624 247.465 209.078 248.989 204.119C250.532 199.097 250.536 197.131 249.018 189.513C249.018 189.513 247.808 183.438 247.808 183.438C247.808 183.438 249.107 178.567 249.107 178.567C251.336 170.203 249.941 168.144 239.331 164.133C232.675 161.617 230.439 161.234 227.845 162.165C227.845 162.165 227.845 162.165 227.845 162.165ZM181.47 177.634C179.834 177.998 177.778 180.535 177.774 182.193C177.772 182.878 178.22 184.69 178.769 186.22C179.318 187.75 179.65 189.112 179.508 189.247C179.366 189.382 175.538 191.536 171.003 194.033C166.467 196.53 162.292 198.982 161.725 199.482C159.638 201.323 160.89 204.916 163.618 204.916C165.947 204.916 182.252 195.991 184.767 193.34C186.525 191.487 186.717 190.972 186.452 188.815C186.288 187.476 185.963 185.917 185.73 185.35C185.352 184.426 185.741 184.321 189.533 184.321C191.857 184.321 194.271 184.046 194.898 183.712C196.283 182.971 196.465 179.524 195.175 178.454C194.286 177.718 183.89 177.096 181.47 177.634C181.47 177.634 181.47 177.634 181.47 177.634ZM2.51513 179.262C1.49844 180.004 1.29993 181.53 0.53948 194.433C0.0747261 202.323 -0.129671 209.481 0.0859184 210.339C0.722082 212.87 4.47133 213.237 5.72717 210.892C6.02345 210.339 6.55477 205.127 6.90819 199.311C7.26103 193.493 7.69574 186.961 7.87363 184.794C8.15696 181.351 8.04563 180.703 6.98712 179.646C5.57284 178.233 4.09729 178.106 2.51513 179.262C2.51513 179.262 2.51513 179.262 2.51513 179.262ZM110.92 187.33C105.054 190.295 103.732 192.1 103.074 198.053C103.074 198.053 102.674 201.68 102.674 201.68C102.674 201.68 99.1397 203.445 99.1397 203.445C96.2121 204.907 95.5724 205.497 95.414 206.88C95.186 208.869 96.7281 210.815 98.4947 210.768C100.382 210.718 104.599 208.85 106.817 207.082C108.988 205.352 110.028 202.614 110.033 198.618C110.037 195.947 110.146 195.825 115.486 192.541C118.641 190.599 119.158 188.725 117.105 186.674C115.581 185.152 115.14 185.199 110.92 187.33C110.92 187.33 110.92 187.33 110.92 187.33ZM207.078 187.255C205.777 188.277 205.501 188.314 204.865 187.549C203.891 186.375 201.068 186.44 199.842 187.664C198.605 188.901 198.904 191.543 201.07 198.474C203.048 204.806 203.869 206.095 205.917 206.084C209.074 206.067 209.675 204.967 211.335 196.18C212.709 188.907 212.565 187.471 210.379 186.641C208.538 185.941 208.816 185.889 207.078 187.255C207.078 187.255 207.078 187.255 207.078 187.255ZM159.313 211.877C158.777 212.469 158.338 213.309 158.338 213.744C158.338 214.181 159.651 218.534 161.254 223.42C162.858 228.305 165.377 236.12 166.851 240.786C168.432 245.788 170.064 249.835 170.829 250.649C172.293 252.206 174.987 253.066 185.14 255.222C197.118 257.765 197.498 257.951 199.555 262.256C200.528 264.292 201.709 266.277 202.179 266.667C203.557 267.809 206.206 267.179 207.154 265.483C207.926 264.103 207.861 263.667 206.413 260.507C204.192 255.66 202.155 253.201 199.34 251.969C198.01 251.386 192.547 249.951 187.201 248.78C181.856 247.608 177.059 246.523 176.543 246.368C175.893 246.173 174.01 241.045 170.445 229.767C167.609 220.792 164.911 212.853 164.45 212.125C163.413 210.486 160.691 210.355 159.313 211.877C159.313 211.877 159.313 211.877 159.313 211.877ZM113.571 214.085C110.817 215.233 107.504 216.593 106.208 217.108C102.932 218.41 101.79 219.537 101.79 221.47C101.79 222.596 102.269 223.444 103.275 224.102C104.98 225.219 105.911 224.957 115.539 220.662C119.586 218.857 121.182 218.421 122.696 218.704C125.201 219.174 125.668 219.804 126.492 223.814C127.517 228.812 129.377 230.186 137.1 231.649C139.813 232.163 142.384 232.875 142.813 233.231C143.586 233.873 145.984 237.917 148.793 243.321C150.148 245.928 150.204 246.36 149.582 249.455C148.752 253.579 149.671 255.522 152.448 255.522C154.968 255.522 156.105 253.43 156.442 248.173C156.718 243.879 156.689 243.773 153.554 237.506C148.709 227.824 146.832 226.343 137.496 224.841C135.529 224.525 133.739 223.973 133.517 223.614C133.295 223.256 132.94 221.804 132.727 220.387C132.48 218.739 131.688 217.07 130.528 215.75C126.658 211.346 121.387 210.829 113.571 214.085C113.571 214.085 113.571 214.085 113.571 214.085ZM231.674 217.625C230.702 218.445 228.63 220.188 227.069 221.498C221.365 226.287 221.909 228.595 230.538 236.196C233.916 239.172 236.681 241.761 236.681 241.949C236.681 242.137 235.488 243.011 234.03 243.89C231.877 245.19 231.379 245.806 231.379 247.178C231.379 249.085 232.957 250.815 234.697 250.815C236.038 250.815 240.931 247.876 243.307 245.643C244.381 244.634 244.931 243.514 244.939 242.319C244.949 240.783 243.948 239.557 238.165 234.016C234.433 230.442 231.387 227.264 231.396 226.955C231.406 226.647 232.997 225.246 234.931 223.843C234.931 223.843 238.449 221.292 238.449 221.292C238.449 221.292 236.581 218.695 236.581 218.695C235.555 217.266 234.428 216.105 234.077 216.115C233.727 216.125 232.646 216.804 231.674 217.625C231.674 217.625 231.674 217.625 231.674 217.625ZM81.9797 221.609C79.696 223.891 79.4068 224.481 79.4068 226.857C79.4068 228.334 80.5949 233.476 82.0574 238.33C83.5153 243.168 84.7081 247.935 84.7081 248.922C84.7081 250.2 83.94 251.617 82.0463 253.833C77.1831 259.525 77.3239 262.537 82.7666 269.236C84.6445 271.546 87.264 275.563 88.5887 278.161C90.3453 281.608 91.415 283.033 92.5465 283.433C94.5858 284.155 96.489 282.531 96.489 280.071C96.489 277.464 93.3523 271.587 89.0835 266.193C87.0007 263.563 85.2972 261.206 85.2972 260.956C85.2972 260.707 86.3946 259.183 87.7358 257.571C90.5455 254.193 91.7766 251.602 91.7766 249.07C91.7766 248.089 90.4218 242.736 88.7654 237.173C88.7654 237.173 85.7543 227.06 85.7543 227.06C85.7543 227.06 87.5927 225.55 87.5927 225.55C90.5532 223.119 89.791 219.039 86.3769 219.039C85.0091 219.039 83.91 219.681 81.9797 221.609C81.9797 221.609 81.9797 221.609 81.9797 221.609ZM15.0611 220.852C14.4986 221.177 13.7682 221.946 13.4389 222.561C12.2496 224.781 13.7517 226.267 20.2311 229.278C23.6075 230.846 26.6564 232.475 27.0063 232.896C27.3892 233.357 28.1255 242.992 28.8547 257.097C29.5533 270.598 30.3491 281.142 30.7331 281.973C31.989 284.688 33.547 285.246 58.6066 291.962C68.3487 294.573 74.2527 295.051 77.9059 293.527C80.5536 292.421 81.5538 290.578 80.5372 288.68C79.5682 286.871 77.6821 286.41 74.9466 287.312C72.2328 288.206 69.7983 287.872 60.5575 285.337C56.5078 284.226 49.8016 282.433 45.6547 281.352C41.5079 280.271 37.8152 279.202 37.4494 278.976C37.0088 278.704 36.4221 271.442 35.7129 257.482C34.4105 231.834 34.2927 230.685 32.7677 228.749C32.0991 227.899 28.6409 225.822 25.0018 224.083C17.1669 220.34 16.3876 220.086 15.0611 220.852C15.0611 220.852 15.0611 220.852 15.0611 220.852ZM89.4205 230.189C89.4205 231.947 90.3582 234.46 92.9217 239.568C96.7764 247.25 97.6965 248.461 99.6792 248.461C101.133 248.461 102.957 246.814 102.988 245.472C102.998 245.013 101.342 241.157 99.3064 236.905C95.7639 229.504 95.5171 229.157 93.5438 228.782C92.4099 228.567 91.0185 228.255 90.4513 228.088C89.5884 227.835 89.4205 228.177 89.4205 230.189C89.4205 230.189 89.4205 230.189 89.4205 230.189ZM363.136 240.495C362.118 241.512 360.157 247.783 359.174 253.168C358.789 255.272 358.072 257.977 357.58 259.179C356.833 261.003 356.809 261.664 357.435 263.174C358.056 264.671 359.411 265.589 365.283 268.491C369.187 270.42 372.721 271.998 373.137 271.998C373.553 271.998 375.027 272.79 376.414 273.759C382.405 277.944 384.644 276.664 387.782 267.254C389.622 261.74 389.849 260.515 389.285 259.157C388.605 257.516 383.823 253.059 381.387 251.797C380.638 251.409 379.154 250.1 378.09 248.889C377.025 247.678 374.18 245.1 371.766 243.161C367.181 239.475 364.871 238.762 363.136 240.495C363.136 240.495 363.136 240.495 363.136 240.495ZM367.183 249.14C367.035 249.576 366.472 251.521 365.934 253.462C365.395 255.404 364.562 257.44 364.082 257.986C363.602 258.532 363.388 259.267 363.607 259.621C363.825 259.974 366.435 261.476 369.408 262.959C372.379 264.441 375.22 266.014 375.72 266.454C376.221 266.894 377.513 267.328 378.594 267.419C380.478 267.578 380.603 267.457 381.618 264.515C381.618 264.515 382.678 261.445 382.678 261.445C382.678 261.445 379.775 259.017 379.775 259.017C378.179 257.682 376.873 256.235 376.873 255.801C376.873 255.368 376.276 254.827 375.547 254.599C374.819 254.372 372.699 252.872 370.838 251.268C368.541 249.287 367.367 248.604 367.183 249.14C367.183 249.14 367.183 249.14 367.183 249.14ZM220.486 253.753C219.567 254.767 219.47 255.639 219.768 260.225C219.768 260.225 220.111 265.526 220.111 265.526C220.111 265.526 218.088 265.526 218.088 265.526C214.302 265.526 212.469 268.995 214.946 271.47C216.029 272.552 216.604 272.657 219.511 272.306C225.932 271.53 227.011 269.678 226.385 260.51C225.935 253.922 225.344 252.58 222.888 252.58C222.151 252.58 221.07 253.108 220.486 253.753C220.486 253.753 220.486 253.753 220.486 253.753ZM104.96 255.84C102.976 258.866 105.548 261.112 119.006 268.104C127.581 272.559 127.415 272.536 139.661 271.063C147.634 270.104 149.841 269.466 150.86 267.823C151.673 266.515 150.9 263.909 149.576 263.49C148.97 263.297 145.194 263.543 141.184 264.035C137.174 264.527 132.698 265.065 131.237 265.229C128.788 265.505 127.938 265.178 120.34 261.038C115.807 258.568 111.467 256.052 110.694 255.446C108.654 253.848 106.155 254.02 104.96 255.84C104.96 255.84 104.96 255.84 104.96 255.84ZM166.585 274.327C163.503 275.973 160.67 279.217 160.074 281.783C159.185 285.608 159.397 293.094 160.445 294.865C161.86 297.259 172.886 304.951 174.902 304.951C176.918 304.951 178.663 302.695 178.076 300.847C177.863 300.176 175.19 297.871 172.137 295.723C172.137 295.723 166.585 291.819 166.585 291.819C166.585 291.819 166.585 287.472 166.585 287.472C166.585 283.641 166.757 282.954 168.031 281.681C168.883 280.83 170.159 280.237 171.139 280.237C174.849 280.237 176.857 276.422 174.343 274.149C172.913 272.856 169.181 272.942 166.585 274.327C166.585 274.327 166.585 274.327 166.585 274.327ZM204.418 277.386C202.022 278.618 202.217 280.253 205.788 288.867C207.645 293.344 209.646 297.969 210.234 299.144C211.321 301.314 213.331 302.343 215.132 301.652C216.774 301.023 226.667 287.878 226.667 286.326C226.667 284.704 222.08 279.459 219.491 278.121C217.322 277.001 206.22 276.46 204.418 277.386C204.418 277.386 204.418 277.386 204.418 277.386ZM193.726 284.114C190.747 286.618 191.763 289.884 195.661 290.338C197.125 290.508 197.52 290.997 198.669 294.065C201.002 300.294 201.017 299.899 198.397 301.054C195.815 302.192 194.919 304.041 195.986 306.033C196.952 307.835 198.612 308.07 202.258 306.922C205.686 305.843 208.407 303.423 208.407 301.455C208.407 300.428 204.234 288.864 202.993 286.451C200.846 282.277 197.05 281.319 193.726 284.114C193.726 284.114 193.726 284.114 193.726 284.114ZM211.397 284.503C211.422 284.908 212.157 286.792 213.031 288.692C213.031 288.692 214.619 292.145 214.619 292.145L216.852 289.283L219.085 286.419C219.085 286.419 217.542 285.094 217.542 285.094C215.821 283.615 211.316 283.182 211.397 284.503C211.397 284.503 211.397 284.503 211.397 284.503Z" fill="#9AC6AF" fill-rule="evenodd" transform="translate(23.086 13.984)" />
  </g>
</svg>